<svg width="309" height="71" viewBox="0 0 309 71" fill="none" xmlns="http://www.w3.org/2000/svg">
    <rect width="309" height="68" fill="#867AE9" />
    <g filter="url(#filter0_dd_6_2)">
        <path d="M37.1479 42.45C37.1479 43.05 37.0979 43.6667 36.9979 44.3C36.8979 44.9 36.8145 45.5 36.7479 46.1C36.6479 46.7667 36.5812 47.45 36.5479 48.15C36.5145 48.8167 36.4145 49.4833 36.2479 50.15C36.2145 50.35 36.1145 50.55 35.9479 50.75C35.8145 50.9167 35.6312 51 35.3979 51C31.8312 51 28.2645 50.9833 24.6979 50.95C21.1312 50.8833 17.5645 50.85 13.9979 50.85C12.9312 50.85 11.8479 50.9 10.7479 51C9.68119 51.0667 8.61452 51.1 7.54785 51.1C7.38118 51.1 7.21452 51.05 7.04785 50.95C6.91452 50.8167 6.84785 50.6667 6.84785 50.5C6.84785 50.3 6.89785 50.1167 6.99785 49.95C7.09785 49.75 7.26452 49.65 7.49785 49.65C8.19785 49.65 8.86452 49.6167 9.49785 49.55C10.1312 49.45 10.6479 49.2167 11.0479 48.85C11.4812 48.45 11.6979 47.8167 11.6979 46.95V18.25C11.6979 17.4833 11.4645 16.9833 10.9979 16.75C10.5312 16.4833 9.96452 16.35 9.29785 16.35C8.96452 16.35 8.64785 16.3667 8.34785 16.4C8.04785 16.4 7.74785 16.4 7.44785 16.4C7.18118 16.4 6.94785 16.3333 6.74785 16.2C6.54785 16.0667 6.44785 15.85 6.44785 15.55C6.44785 15.2833 6.49785 15.05 6.59785 14.85C6.69785 14.65 6.91452 14.55 7.24785 14.55C7.81452 14.55 8.36452 14.5667 8.89785 14.6C9.46452 14.6333 10.0145 14.65 10.5479 14.65C13.9145 14.65 17.2812 14.6333 20.6479 14.6C24.0145 14.5333 27.3645 14.5 30.6979 14.5C32.2312 14.5 33.7479 14.45 35.2479 14.35C35.3812 15.3167 35.5479 16.2833 35.7479 17.25C35.9479 18.2167 36.1145 19.1833 36.2479 20.15C36.3145 20.35 36.3645 20.55 36.3979 20.75C36.4312 20.9167 36.4479 21.1 36.4479 21.3C36.4479 21.6333 36.3312 21.8667 36.0979 22C35.8979 22.1333 35.6479 22.2 35.3479 22.2C35.0812 22.2 34.8812 22.15 34.7479 22.05C34.6479 21.9167 34.5479 21.7167 34.4479 21.45C33.8145 19.45 32.9645 18.0667 31.8979 17.3C30.8645 16.5333 29.2812 16.15 27.1479 16.15H16.7479V31.2C18.0479 31.2 19.3479 31.2 20.6479 31.2C21.9479 31.1667 23.2645 31.1167 24.5979 31.05C25.9645 30.9833 27.2312 30.8667 28.3979 30.7C29.5979 30.5 30.8645 30.2833 32.1979 30.05H32.2479C32.4479 30.05 32.5479 30.1333 32.5479 30.3C32.5479 30.5333 32.4479 30.95 32.2479 31.55C32.0479 32.15 31.8979 32.55 31.7979 32.75C31.6312 33.15 31.3645 33.35 30.9979 33.35C30.1645 33.35 29.2979 33.3 28.3979 33.2C27.5312 33.0667 26.6645 33 25.7979 33C25.1979 32.9667 24.5979 32.9667 23.9979 33C23.3979 33 22.7812 33 22.1479 33C21.9145 33 21.6645 33 21.3979 33C21.1645 32.9667 20.9145 32.95 20.6479 32.95C20.1479 32.95 19.5979 33 18.9979 33.1C18.3979 33.1667 17.8645 33.3667 17.3979 33.7C16.9645 34 16.7479 34.5 16.7479 35.2V47.2C16.7479 48.3333 17.0312 49 17.5979 49.2C18.1645 49.3667 18.9145 49.45 19.8479 49.45H23.8479C24.7812 49.45 25.8145 49.4 26.9479 49.3C28.1145 49.2 29.2479 48.9833 30.3479 48.65C31.4479 48.3167 32.3479 47.8333 33.0479 47.2C33.8145 46.5 34.3479 45.7333 34.6479 44.9C34.9812 44.0333 35.3645 43.1667 35.7979 42.3C35.9645 42 36.2312 41.85 36.5979 41.85C36.9645 41.85 37.1479 42.05 37.1479 42.45ZM67.3893 50.5C67.3893 50.8333 67.2393 51 66.9393 51H59.7393C59.4059 51 59.1559 50.8833 58.9893 50.65C58.8226 50.3833 58.6559 50.1 58.4893 49.8C58.3226 49.4667 58.1559 49.15 57.9893 48.85C57.1559 47.2833 56.2393 45.75 55.2393 44.25C54.2393 42.7167 53.2226 41.2167 52.1893 39.75C51.5559 40.6833 50.9226 41.6333 50.2893 42.6C49.6559 43.5333 49.0059 44.4833 48.3393 45.45C47.8393 46.1833 47.3226 46.9 46.7893 47.6C46.2893 48.3 45.8059 49.0333 45.3393 49.8C45.2726 49.9333 45.2059 50.0667 45.1393 50.2C45.0726 50.3 45.0059 50.4167 44.9393 50.55C44.8726 50.75 44.7726 50.8667 44.6393 50.9L44.5393 50.95H39.6393C39.5059 50.95 39.3893 50.8833 39.2893 50.75C39.2226 50.5833 39.1893 50.45 39.1893 50.35C39.1893 50.1833 39.2559 50.0833 39.3893 50.05C39.5226 49.9833 39.6393 49.95 39.7393 49.95C40.4393 49.95 41.0226 49.8833 41.4893 49.75C41.9893 49.6167 42.5059 49.3333 43.0393 48.9C43.8059 48.2333 44.4559 47.5333 44.9893 46.8C46.0559 45.4333 47.1226 44.0667 48.1893 42.7C49.2893 41.3333 50.3059 39.9167 51.2393 38.45C51.0059 38.05 50.6059 37.4167 50.0393 36.55C49.5059 35.65 48.8893 34.65 48.1893 33.55C47.5226 32.45 46.8393 31.3667 46.1393 30.3C45.4393 29.2333 44.8059 28.3167 44.2393 27.55C43.7059 26.7833 43.3226 26.3167 43.0893 26.15C42.8893 25.9833 42.6559 25.8833 42.3893 25.85C42.1559 25.7833 41.9059 25.75 41.6393 25.75C41.3059 25.75 40.9893 25.7667 40.6893 25.8C40.3893 25.8333 40.0726 25.85 39.7393 25.85C39.4059 25.85 39.2393 25.7 39.2393 25.4C39.2393 25.1333 39.3726 24.95 39.6393 24.85C39.8726 24.75 40.2393 24.6833 40.7393 24.65C41.2393 24.5833 41.7559 24.5333 42.2893 24.5C42.8226 24.4667 43.2393 24.4333 43.5393 24.4C43.9393 24.3333 44.4893 24.25 45.1893 24.15C45.8893 24.0167 46.4059 23.95 46.7393 23.95C47.0393 23.95 47.3059 24.1167 47.5393 24.45C47.9393 25.0833 48.3226 25.7167 48.6893 26.35C49.0559 26.9833 49.4226 27.6167 49.7893 28.25C50.4893 29.4833 51.1893 30.7167 51.8893 31.95C52.6226 33.15 53.3559 34.3667 54.0893 35.6C54.2559 35.3333 54.5726 34.85 55.0393 34.15C55.5059 33.4167 56.0393 32.6 56.6393 31.7C57.2393 30.8 57.8059 29.9167 58.3393 29.05C58.9059 28.15 59.3726 27.3833 59.7393 26.75C60.1059 26.0833 60.2893 25.6833 60.2893 25.55C60.2893 25.25 60.1393 25.0833 59.8393 25.05C59.5393 24.9833 59.1893 24.9667 58.7893 25C58.3893 25.0333 58.0393 25.0333 57.7393 25C57.4393 24.9667 57.2893 24.8167 57.2893 24.55C57.2893 24.45 57.3226 24.35 57.3893 24.25C57.4559 24.1167 57.5393 24.05 57.6393 24.05C58.3059 24.05 58.9559 24.0667 59.5893 24.1C60.2559 24.1 60.9059 24.1 61.5393 24.1C62.3393 24.1 63.1393 24.0833 63.9393 24.05C64.7393 24.0167 65.5393 24 66.3393 24C66.7726 24 66.9893 24.1833 66.9893 24.55C66.9893 24.8833 66.7726 25.05 66.3393 25.05C65.9393 25.05 65.6226 25.05 65.3893 25.05C64.9893 25.05 64.6559 25.0833 64.3893 25.15C64.1226 25.1833 63.8393 25.3333 63.5393 25.6C63.3393 25.7667 63.1559 25.9333 62.9893 26.1C62.8226 26.2667 62.6559 26.4667 62.4893 26.7C61.2559 28.3667 60.0059 30.05 58.7393 31.75C57.4726 33.4167 56.2059 35.0833 54.9393 36.75C56.2726 38.75 57.6559 40.7333 59.0893 42.7C60.5226 44.6333 61.9726 46.5333 63.4393 48.4C63.9059 49 64.4226 49.4 64.9893 49.6C65.5559 49.8 66.2059 49.9 66.9393 49.9C67.2393 49.9 67.3893 50.1 67.3893 50.5ZM90.7025 36.7C90.7025 35.5667 90.6359 34.3833 90.5025 33.15C90.3692 31.8833 90.0859 30.7 89.6525 29.6C89.2192 28.5 88.5692 27.6167 87.7025 26.95C86.8359 26.25 85.6525 25.9 84.1525 25.9C83.2525 25.9 82.2859 26.1333 81.2525 26.6C80.2525 27.0333 79.3692 27.6333 78.6025 28.4C77.8692 29.1667 77.4525 30.05 77.3525 31.05C77.2859 32.0833 77.2525 33.1333 77.2525 34.2C77.2525 35.2667 77.2525 36.3333 77.2525 37.4C77.2525 38.3333 77.2525 39.2833 77.2525 40.25C77.2859 41.1833 77.3192 42.1333 77.3525 43.1C77.4525 44.8 78.0025 46.25 79.0025 47.45C80.0025 48.6167 81.4192 49.2 83.2525 49.2C84.9859 49.2 86.3525 48.8167 87.3525 48.05C88.3525 47.25 89.0859 46.2167 89.5525 44.95C90.0525 43.6833 90.3692 42.3333 90.5025 40.9C90.6359 39.4333 90.7025 38.0333 90.7025 36.7ZM95.8525 36.75C95.8525 39.35 95.3859 41.7 94.4525 43.8C93.5192 45.9 92.1192 47.5667 90.2525 48.8C88.4192 50 86.1192 50.6 83.3525 50.6C82.2859 50.6 81.1859 50.3333 80.0525 49.8C78.9525 49.2333 78.0192 48.5833 77.2525 47.85V58.5C77.2525 58.9667 77.4359 59.2333 77.8025 59.3C78.2025 59.3667 78.5692 59.4 78.9025 59.4C79.2025 59.4 79.5025 59.3833 79.8025 59.35C80.1025 59.3167 80.4025 59.3 80.7025 59.3C81.1359 59.3 81.3525 59.5167 81.3525 59.95C81.3525 60.45 81.1025 60.7 80.6025 60.7C79.5692 60.7 78.5359 60.6667 77.5025 60.6C76.4692 60.5333 75.4359 60.5 74.4025 60.5C73.5359 60.5 72.6692 60.5333 71.8025 60.6C70.9692 60.6667 70.1192 60.7 69.2525 60.7C69.0192 60.7 68.8692 60.6167 68.8025 60.45C68.7692 60.2833 68.7525 60.1333 68.7525 60C68.7525 59.5333 68.9859 59.3 69.4525 59.3C69.7192 59.3 69.9859 59.3 70.2525 59.3C70.5192 59.3333 70.7859 59.35 71.0525 59.35C71.2859 59.35 71.6192 59.3167 72.0525 59.25C72.5192 59.1833 72.7525 58.9833 72.7525 58.65C72.7525 55.1833 72.7525 51.7 72.7525 48.2C72.7859 44.7 72.8025 41.2167 72.8025 37.75C72.8025 36.1833 72.7859 34.6333 72.7525 33.1C72.7525 31.5667 72.7359 30.0333 72.7025 28.5C72.6692 27.7667 72.5359 27.2667 72.3025 27C72.0692 26.7 71.5692 26.55 70.8025 26.55C70.4692 26.55 70.1359 26.6 69.8025 26.7C69.4692 26.7667 69.1359 26.8 68.8025 26.8C68.4359 26.8 68.2525 26.6333 68.2525 26.3C68.2525 26 68.4025 25.8 68.7025 25.7C68.7692 25.6667 69.0692 25.6 69.6025 25.5C70.1359 25.4 70.7692 25.2833 71.5025 25.15C72.2692 24.9833 73.0192 24.8333 73.7525 24.7C74.4859 24.5667 75.1025 24.45 75.6025 24.35C76.1025 24.25 76.3692 24.2 76.4025 24.2C76.6692 24.2 76.8525 24.3667 76.9525 24.7C77.0192 24.9 77.0525 25.2667 77.0525 25.8C77.0859 26.3 77.1025 26.8167 77.1025 27.35C77.1025 27.85 77.1025 28.2333 77.1025 28.5C78.0359 27.2667 79.2192 26.25 80.6525 25.45C82.1192 24.6167 83.6359 24.2 85.2025 24.2C87.5025 24.2 89.4359 24.8167 91.0025 26.05C92.6025 27.25 93.8025 28.8167 94.6025 30.75C95.4359 32.65 95.8525 34.65 95.8525 36.75ZM121.322 37.8C121.322 36.3667 121.206 34.9333 120.972 33.5C120.772 32.0333 120.372 30.6833 119.772 29.45C119.206 28.2167 118.372 27.2333 117.272 26.5C116.172 25.7333 114.739 25.35 112.972 25.35C111.306 25.35 109.939 25.75 108.872 26.55C107.839 27.35 107.022 28.3833 106.422 29.65C105.856 30.9167 105.456 32.2833 105.222 33.75C105.022 35.2167 104.922 36.6 104.922 37.9C104.922 39.3333 105.022 40.7667 105.222 42.2C105.456 43.6333 105.872 44.9333 106.472 46.1C107.072 47.2333 107.922 48.15 109.022 48.85C110.156 49.55 111.606 49.9 113.372 49.9C115.106 49.9 116.489 49.5333 117.522 48.8C118.589 48.0667 119.389 47.1 119.922 45.9C120.489 44.7 120.856 43.4 121.022 42C121.222 40.5667 121.322 39.1667 121.322 37.8ZM126.472 37.95C126.472 40.45 125.872 42.7 124.672 44.7C123.506 46.7 121.906 48.2833 119.872 49.45C117.872 50.6167 115.622 51.2 113.122 51.2C110.689 51.2 108.489 50.6167 106.522 49.45C104.556 48.25 102.989 46.6667 101.822 44.7C100.656 42.7 100.072 40.4833 100.072 38.05C100.072 35.55 100.639 33.25 101.772 31.15C102.906 29.0167 104.456 27.3 106.422 26C108.422 24.7 110.722 24.05 113.322 24.05C116.122 24.05 118.506 24.65 120.472 25.85C122.439 27.0167 123.922 28.65 124.922 30.75C125.956 32.8167 126.472 35.2167 126.472 37.95ZM149.478 43.85C149.478 45.35 149.145 46.5833 148.478 47.55C147.812 48.4833 146.945 49.2 145.878 49.7C144.812 50.2 143.645 50.55 142.378 50.75C141.112 50.95 139.878 51.05 138.678 51.05C137.578 51.05 136.478 50.9333 135.378 50.7C134.312 50.4667 133.228 50.3 132.128 50.2C131.895 49.3 131.662 48.4 131.428 47.5C131.228 46.6 130.995 45.7167 130.728 44.85C130.695 44.75 130.612 44.5167 130.478 44.15C130.378 43.7833 130.328 43.5833 130.328 43.55C130.328 43.2833 130.412 43.1 130.578 43C130.745 42.8667 130.945 42.8 131.178 42.8C131.412 42.8 131.578 42.8833 131.678 43.05C131.878 43.2833 132.045 43.6 132.178 44C132.345 44.4 132.495 44.75 132.628 45.05C132.895 45.5833 133.128 46 133.328 46.3C133.528 46.5667 133.845 46.9167 134.278 47.35C135.578 48.7167 137.195 49.4 139.128 49.4C140.195 49.4 141.162 49.2833 142.028 49.05C142.928 48.8167 143.645 48.3833 144.178 47.75C144.712 47.0833 144.978 46.1333 144.978 44.9C144.978 43.8333 144.645 42.95 143.978 42.25C143.312 41.5167 142.445 40.8667 141.378 40.3C140.345 39.7333 139.245 39.1833 138.078 38.65C136.912 38.1167 135.795 37.5333 134.728 36.9C133.695 36.2333 132.845 35.4333 132.178 34.5C131.512 33.5667 131.178 32.4333 131.178 31.1C131.178 29.4667 131.595 28.1333 132.428 27.1C133.295 26.0667 134.395 25.3 135.728 24.8C137.062 24.2667 138.445 24 139.878 24C140.812 24 141.645 24.1167 142.378 24.35C143.145 24.5833 143.945 24.85 144.778 25.15C145.045 25.25 145.312 25.3167 145.578 25.35C145.845 25.3833 146.112 25.4 146.378 25.4C146.545 25.4 146.695 25.4 146.828 25.4C146.962 25.4 147.095 25.3833 147.228 25.35C147.328 25.95 147.412 26.5667 147.478 27.2C147.578 27.8 147.662 28.4167 147.728 29.05C147.762 29.2833 147.795 29.5667 147.828 29.9C147.895 30.2 147.928 30.4833 147.928 30.75C147.928 30.9833 147.878 31.2333 147.778 31.5C147.678 31.7333 147.478 31.85 147.178 31.85C146.945 31.85 146.745 31.8333 146.578 31.8C146.445 31.7333 146.328 31.5833 146.228 31.35C146.062 31.0167 145.912 30.6667 145.778 30.3C145.678 29.9 145.562 29.5333 145.428 29.2C144.995 28.0333 144.245 27.1 143.178 26.4C142.112 25.6667 140.962 25.3 139.728 25.3C138.162 25.3 136.978 25.7667 136.178 26.7C135.378 27.6 134.978 28.8167 134.978 30.35C134.978 30.8833 135.112 31.4 135.378 31.9C135.678 32.4 136.012 32.8333 136.378 33.2C137.078 33.8667 137.895 34.3833 138.828 34.75C139.795 35.1167 140.712 35.4833 141.578 35.85C142.712 36.35 143.878 36.95 145.078 37.65C146.312 38.35 147.345 39.2 148.178 40.2C149.045 41.2 149.478 42.4167 149.478 43.85ZM181.993 49.65C181.993 50.05 181.693 50.35 181.093 50.55C180.526 50.75 179.893 50.8833 179.193 50.95C178.493 51.0167 177.993 51.05 177.693 51.05C176.559 51.05 175.659 50.6 174.993 49.7C174.326 48.8 173.826 47.8667 173.493 46.9C172.359 48.3333 170.943 49.4 169.243 50.1C167.543 50.8 165.776 51.15 163.943 51.15C160.943 51.15 158.859 50.3833 157.693 48.85C156.559 47.2833 155.993 45.0833 155.993 42.25C155.993 39.75 155.993 37.25 155.993 34.75C156.026 32.2167 156.059 29.7 156.093 27.2C156.093 26.2 155.609 25.7 154.643 25.7C154.376 25.7 154.109 25.7167 153.843 25.75C153.576 25.7833 153.309 25.8 153.043 25.8C152.943 25.8 152.859 25.75 152.793 25.65C152.759 25.5167 152.743 25.4167 152.743 25.35C152.743 24.9833 152.909 24.7833 153.243 24.75C154.409 24.6167 155.576 24.5333 156.743 24.5C157.943 24.4333 159.126 24.3333 160.293 24.2C160.559 24.4667 160.693 24.8 160.693 25.2C160.693 26.0333 160.676 26.8833 160.643 27.75C160.609 28.6167 160.593 29.4833 160.593 30.35C160.559 32.3833 160.526 34.4333 160.493 36.5C160.493 38.5333 160.493 40.5833 160.493 42.65C160.493 43.2833 160.509 43.9667 160.543 44.7C160.576 45.4 160.709 46.05 160.943 46.65C161.309 47.5833 161.993 48.25 162.993 48.65C164.026 49.0167 165.009 49.2 165.943 49.2C166.976 49.2 168.009 49.0167 169.043 48.65C170.109 48.25 171.009 47.6833 171.743 46.95C172.509 46.1833 172.943 45.2333 173.043 44.1C173.109 43.5333 173.143 42.9667 173.143 42.4C173.176 41.8 173.193 41.2167 173.193 40.65L173.143 27.05C173.143 26.6167 172.993 26.3 172.693 26.1C172.426 25.9 172.109 25.8 171.743 25.8C171.409 25.8 171.076 25.8167 170.743 25.85C170.443 25.8833 170.126 25.9 169.793 25.9C169.493 25.9 169.343 25.7333 169.343 25.4C169.343 25.0667 169.493 24.8833 169.793 24.85C170.193 24.7833 170.609 24.75 171.043 24.75C171.476 24.7167 171.909 24.6833 172.343 24.65L175.793 24.3C176.026 24.2667 176.259 24.2333 176.493 24.2C176.759 24.1667 177.009 24.15 177.243 24.15C177.409 24.15 177.526 24.25 177.593 24.45C177.659 24.6167 177.693 24.75 177.693 24.85C177.593 32.0833 177.543 39.3 177.543 46.5C177.543 47.3333 177.726 48.0167 178.093 48.55C178.493 49.0833 179.143 49.35 180.043 49.35C180.309 49.35 180.543 49.3167 180.743 49.25C180.976 49.1833 181.209 49.15 181.443 49.15C181.809 49.15 181.993 49.3167 181.993 49.65ZM204.239 28.75C204.239 29.0833 204.106 29.4 203.839 29.7C203.606 29.9667 203.306 30.1 202.939 30.1C202.439 30.1 202.073 29.9333 201.839 29.6C201.639 29.2667 201.456 28.8833 201.289 28.45C201.156 28.0167 200.939 27.6333 200.639 27.3C200.339 26.9667 199.839 26.8 199.139 26.8C199.006 26.8 198.873 26.8 198.739 26.8C198.639 26.8 198.523 26.8167 198.389 26.85C197.823 26.95 197.206 27.3 196.539 27.9C195.873 28.5 195.223 29.2167 194.589 30.05C193.989 30.85 193.489 31.65 193.089 32.45C192.689 33.25 192.473 33.9167 192.439 34.45C192.406 34.9833 192.389 35.5167 192.389 36.05C192.389 36.55 192.389 37.05 192.389 37.55C192.389 39.35 192.389 41.15 192.389 42.95C192.423 44.75 192.439 46.5333 192.439 48.3C192.439 48.8 192.639 49.1667 193.039 49.4C193.473 49.6 193.906 49.7 194.339 49.7C194.673 49.7 195.006 49.6833 195.339 49.65C195.673 49.6167 196.006 49.6 196.339 49.6C196.506 49.6 196.623 49.6833 196.689 49.85C196.756 49.9833 196.789 50.1167 196.789 50.25C196.789 50.7833 196.523 51.05 195.989 51.05C194.989 51.05 193.989 51.0333 192.989 51C191.989 50.9333 190.989 50.9 189.989 50.9C188.956 50.9 187.906 50.9333 186.839 51C185.806 51.0667 184.756 51.1 183.689 51.1C183.556 51.1 183.456 51 183.389 50.8C183.356 50.6 183.339 50.4333 183.339 50.3C183.339 49.9667 183.473 49.7833 183.739 49.75C184.106 49.6833 184.489 49.6667 184.889 49.7C185.289 49.7333 185.656 49.75 185.989 49.75C186.489 49.75 186.889 49.65 187.189 49.45C187.523 49.2167 187.706 48.8333 187.739 48.3C187.806 47.2333 187.839 46.15 187.839 45.05C187.873 43.95 187.889 42.85 187.889 41.75V36.9C187.856 35.4667 187.839 34.05 187.839 32.65C187.873 31.2167 187.823 29.8 187.689 28.4C187.656 27.7333 187.473 27.2667 187.139 27C186.806 26.7 186.306 26.55 185.639 26.55C185.373 26.55 185.089 26.5833 184.789 26.65C184.523 26.6833 184.239 26.7 183.939 26.7C183.673 26.7 183.539 26.5 183.539 26.1C183.539 25.8667 183.656 25.7 183.889 25.6C184.223 25.5 184.573 25.4333 184.939 25.4C185.306 25.3333 185.656 25.2833 185.989 25.25C186.889 25.0833 187.789 24.9167 188.689 24.75C189.589 24.5833 190.489 24.3833 191.389 24.15C191.689 24.25 191.906 24.4333 192.039 24.7C192.106 24.8333 192.156 25.2 192.189 25.8C192.223 26.4 192.239 27.1 192.239 27.9C192.239 28.6667 192.239 29.4 192.239 30.1C192.239 30.7667 192.239 31.2333 192.239 31.5C192.973 30.3333 193.806 29.1667 194.739 28C195.673 26.8333 196.739 25.8667 197.939 25.1C199.139 24.3333 200.489 23.95 201.989 23.95C202.789 23.95 203.306 24.2 203.539 24.7C203.773 25.2 203.923 25.7833 203.989 26.45C204.056 26.8167 204.106 27.2 204.139 27.6C204.206 28 204.239 28.3833 204.239 28.75ZM225.106 33.45C225.073 32.0833 224.956 30.7833 224.756 29.55C224.556 28.2833 224.073 27.25 223.306 26.45C222.539 25.6167 221.289 25.2 219.556 25.2C217.989 25.2 216.706 25.6333 215.706 26.5C214.739 27.3333 213.989 28.4 213.456 29.7C212.923 30.9667 212.523 32.2667 212.256 33.6C213.089 33.6333 213.906 33.6667 214.706 33.7C215.506 33.7 216.306 33.7 217.106 33.7C218.439 33.7 219.773 33.6833 221.106 33.65C222.439 33.5833 223.773 33.5167 225.106 33.45ZM230.856 44.9C230.856 45.0667 230.823 45.1667 230.756 45.2C230.656 45.5333 230.406 45.9333 230.006 46.4C229.639 46.8667 229.223 47.3167 228.756 47.75C228.289 48.15 227.906 48.45 227.606 48.65C226.506 49.4167 225.256 50.0333 223.856 50.5C222.489 50.9667 221.123 51.2 219.756 51.2C218.623 51.2 217.356 51.0167 215.956 50.65C214.589 50.2833 213.423 49.7833 212.456 49.15C210.589 47.9167 209.223 46.3 208.356 44.3C207.489 42.3 207.056 40.2167 207.056 38.05C207.056 35.5833 207.539 33.3 208.506 31.2C209.473 29.1 211.023 27.4 213.156 26.1C214.123 25.5333 215.206 25.0667 216.406 24.7C217.606 24.3 218.756 24.1 219.856 24.1C221.823 24.1 223.556 24.5 225.056 25.3C226.556 26.1 227.723 27.2333 228.556 28.7C229.423 30.1333 229.856 31.85 229.856 33.85C229.856 34.4167 229.723 34.7833 229.456 34.95C229.223 35.1167 228.856 35.2 228.356 35.2C227.689 35.2 227.023 35.1833 226.356 35.15C225.689 35.1167 225.023 35.0833 224.356 35.05C223.423 34.9833 222.489 34.95 221.556 34.95C220.656 34.95 219.739 34.95 218.806 34.95C217.673 34.95 216.539 34.95 215.406 34.95C214.273 34.95 213.139 34.9833 212.006 35.05C211.973 35.5833 211.939 36.1 211.906 36.6C211.873 37.1 211.856 37.6167 211.856 38.15C211.856 39.3833 212.006 40.6667 212.306 42C212.606 43.3 213.089 44.5167 213.756 45.65C214.423 46.75 215.273 47.65 216.306 48.35C217.339 49.0167 218.589 49.35 220.056 49.35C221.556 49.35 222.989 49.1167 224.356 48.65C225.723 48.1833 226.973 47.4333 228.106 46.4C228.406 46.1 228.673 45.7833 228.906 45.45C229.173 45.0833 229.456 44.7667 229.756 44.5C229.923 44.3333 230.106 44.25 230.306 44.25C230.473 44.25 230.606 44.3167 230.706 44.45C230.806 44.5833 230.856 44.7333 230.856 44.9Z" fill="#F5F5F5" />
    </g>
    <g filter="url(#filter1_d_6_2)">
        <circle cx="269.109" cy="38" r="25" fill="#C449C2" />
    </g>
    <g filter="url(#filter2_d_6_2)">
        <path d="M237 25H267" stroke="#FFCEAD" stroke-width="2" stroke-linecap="round" />
    </g>
    <g filter="url(#filter3_d_6_2)">
        <path d="M254 37H284" stroke="#FFCEAD" stroke-width="2" stroke-linecap="round" />
    </g>
    <g filter="url(#filter4_d_6_2)">
        <path d="M271 50H301" stroke="#FFCEAD" stroke-width="2" stroke-linecap="round" />
    </g>
    <defs>
        <filter id="filter0_dd_6_2" x="2.44788" y="14.35" width="232.408" height="54.35" filterUnits="userSpaceOnUse" color-interpolation-filters="sRGB">
            <feFlood flood-opacity="0" result="BackgroundImageFix" />
            <feColorMatrix in="SourceAlpha" type="matrix" values="0 0 0 0 0 0 0 0 0 0 0 0 0 0 0 0 0 0 127 0" result="hardAlpha" />
            <feOffset dy="4" />
            <feGaussianBlur stdDeviation="2" />
            <feComposite in2="hardAlpha" operator="out" />
            <feColorMatrix type="matrix" values="0 0 0 0 0 0 0 0 0 0 0 0 0 0 0 0 0 0 0.25 0" />
            <feBlend mode="normal" in2="BackgroundImageFix" result="effect1_dropShadow_6_2" />
            <feColorMatrix in="SourceAlpha" type="matrix" values="0 0 0 0 0 0 0 0 0 0 0 0 0 0 0 0 0 0 127 0" result="hardAlpha" />
            <feOffset dy="4" />
            <feGaussianBlur stdDeviation="2" />
            <feComposite in2="hardAlpha" operator="out" />
            <feColorMatrix type="matrix" values="0 0 0 0 0 0 0 0 0 0 0 0 0 0 0 0 0 0 0.25 0" />
            <feBlend mode="normal" in2="effect1_dropShadow_6_2" result="effect2_dropShadow_6_2" />
            <feBlend mode="normal" in="SourceGraphic" in2="effect2_dropShadow_6_2" result="shape" />
        </filter>
        <filter id="filter1_d_6_2" x="240.109" y="13" width="58" height="58" filterUnits="userSpaceOnUse" color-interpolation-filters="sRGB">
            <feFlood flood-opacity="0" result="BackgroundImageFix" />
            <feColorMatrix in="SourceAlpha" type="matrix" values="0 0 0 0 0 0 0 0 0 0 0 0 0 0 0 0 0 0 127 0" result="hardAlpha" />
            <feOffset dy="4" />
            <feGaussianBlur stdDeviation="2" />
            <feComposite in2="hardAlpha" operator="out" />
            <feColorMatrix type="matrix" values="0 0 0 0 1 0 0 0 0 0.807843 0 0 0 0 0.678431 0 0 0 1 0" />
            <feBlend mode="normal" in2="BackgroundImageFix" result="effect1_dropShadow_6_2" />
            <feBlend mode="normal" in="SourceGraphic" in2="effect1_dropShadow_6_2" result="shape" />
        </filter>
        <filter id="filter2_d_6_2" x="232" y="24" width="40" height="10" filterUnits="userSpaceOnUse" color-interpolation-filters="sRGB">
            <feFlood flood-opacity="0" result="BackgroundImageFix" />
            <feColorMatrix in="SourceAlpha" type="matrix" values="0 0 0 0 0 0 0 0 0 0 0 0 0 0 0 0 0 0 127 0" result="hardAlpha" />
            <feOffset dy="4" />
            <feGaussianBlur stdDeviation="2" />
            <feComposite in2="hardAlpha" operator="out" />
            <feColorMatrix type="matrix" values="0 0 0 0 0 0 0 0 0 0 0 0 0 0 0 0 0 0 0.25 0" />
            <feBlend mode="normal" in2="BackgroundImageFix" result="effect1_dropShadow_6_2" />
            <feBlend mode="normal" in="SourceGraphic" in2="effect1_dropShadow_6_2" result="shape" />
        </filter>
        <filter id="filter3_d_6_2" x="249" y="36" width="40" height="10" filterUnits="userSpaceOnUse" color-interpolation-filters="sRGB">
            <feFlood flood-opacity="0" result="BackgroundImageFix" />
            <feColorMatrix in="SourceAlpha" type="matrix" values="0 0 0 0 0 0 0 0 0 0 0 0 0 0 0 0 0 0 127 0" result="hardAlpha" />
            <feOffset dy="4" />
            <feGaussianBlur stdDeviation="2" />
            <feComposite in2="hardAlpha" operator="out" />
            <feColorMatrix type="matrix" values="0 0 0 0 0 0 0 0 0 0 0 0 0 0 0 0 0 0 0.25 0" />
            <feBlend mode="normal" in2="BackgroundImageFix" result="effect1_dropShadow_6_2" />
            <feBlend mode="normal" in="SourceGraphic" in2="effect1_dropShadow_6_2" result="shape" />
        </filter>
        <filter id="filter4_d_6_2" x="266" y="49" width="40" height="10" filterUnits="userSpaceOnUse" color-interpolation-filters="sRGB">
            <feFlood flood-opacity="0" result="BackgroundImageFix" />
            <feColorMatrix in="SourceAlpha" type="matrix" values="0 0 0 0 0 0 0 0 0 0 0 0 0 0 0 0 0 0 127 0" result="hardAlpha" />
            <feOffset dy="4" />
            <feGaussianBlur stdDeviation="2" />
            <feComposite in2="hardAlpha" operator="out" />
            <feColorMatrix type="matrix" values="0 0 0 0 0 0 0 0 0 0 0 0 0 0 0 0 0 0 0.25 0" />
            <feBlend mode="normal" in2="BackgroundImageFix" result="effect1_dropShadow_6_2" />
            <feBlend mode="normal" in="SourceGraphic" in2="effect1_dropShadow_6_2" result="shape" />
        </filter>
    </defs>
</svg>